<svg xmlns="http://www.w3.org/2000/svg" width="256" height="256"><path fill-opacity=".016" d="M0 128.004v128.004l128.25-.254 128.25-.254.254-127.75L257.008 0H0v128.004m.485.496c0 70.4.119 99.053.265 63.672.146-35.38.146-92.98 0-128C.604 29.153.485 58.1.485 128.5" fill="#1976D2" fill-rule="evenodd"/><path fill-opacity=".235" d="M101 48.5C87.533 61.975 77.187 73.04 78.008 73.089c.82.049 3.742.021 6.492-.061l5-.151 19.252-19.18 19.251-19.181 29.755 29.742L187.512 94h5.077c2.793 0 5.395-.318 5.783-.706.388-.388-14.722-16.138-33.578-35C137.936 31.427 129.967 24 127.998 24c-1.95 0-8.004 5.495-26.998 24.5m12.642 11.29L98.784 74.741l1.744 2.662c1.346 2.053 1.616 3.914 1.181 8.13-.311 3.007-.159 5.467.338 5.467 1.229 0 3.953 5.437 3.953 7.891 0 1.095.529 2.318 1.176 2.718.646.399 6.369.677 12.717.617 10.029-.096 12.035.167 15.311 2.009l3.77 2.119 4.763-2.225c4.12-1.925 6.138-2.186 14.953-1.937 10.855.307 13.514-.602 16.966-5.8 1.266-1.908-.234-3.663-22.9-26.797L128.5 44.84l-14.858 14.95M80.691 79.049c-2.095.36-5.695 1.977-8 3.592-6.315 4.426-9.858 11.239-13.12 25.232L56.744 120h-6.479c-4.77 0-6.354-.33-6.004-1.25.261-.687 1.508-6.159 2.771-12.158l2.295-10.908-2.413-1.96c-5.646-4.584-25.081 1.213-30.424 9.076-3.013 4.434-3.314 10.144-.661 12.545 2.736 2.476 7.82 2.097 10.716-.8 4.302-4.302 2.323-10.15-2.552-7.541-2.752 1.472-3.993 1.219-3.993-.817C20 102.593 27.954 97 33.065 97c2.537 0 2.472 2.189-.399 13.5-2.267 8.928-2.313 9.004-5.714 9.5-4.732.69-5.486 4-.912 4 3.183 0 3.186.006 2.549 4.25-.35 2.338-1.749 8.74-3.108 14.229-2.032 8.204-3.05 10.543-5.726 13.156-4.256 4.154-8.932 5.188-11.565 2.555-1.067-1.067-2.13-2.511-2.363-3.208C5.082 152.746 1 155.721 1 158.5c0 3.328 2.686 4.5 10.309 4.5 7.34 0 13.542-1.887 18.412-5.601 6.401-4.882 8.787-10.258 12.269-27.649l1.152-5.75h6.536c4.815 0 6.411.329 6.061 1.25-.261.688-1.497 6.108-2.747 12.045-3.083 14.651-2.191 16.527 7.508 15.781 2.789-.214 9.5-3.201 9.5-4.228 0-.466-1.266-.848-2.813-.848h-2.813l2.563-11.998 2.563-11.999 3.643-.001c2.398-.001 3.85-.542 4.25-1.584.914-2.381.87-2.418-2.893-2.418-2.671 0-3.497-.414-3.488-1.75.026-3.902 6.004-27.361 7.938-31.152 2.49-4.881 6.577-6.529 8.671-3.495 3.213 4.651 3.612 4.828 5.539 2.448 2.288-2.826.974-5.777-2.939-6.599-4.911-1.033-5.681-1.065-9.53-.403m6.445 19.306c-4.586 4.882-.066 10.413 6.596 8.07 3.253-1.144 5.241-5.652 3.628-8.228-1.753-2.8-7.529-2.711-10.224.158m93.984 3.951c-1.871 3.027-7.34 6.612-12.37 8.11-2.376.707-2.212 2.65.278 3.302 1.283.335 1.859 1.127 1.567 2.156-.254.894-1.708 7.753-3.232 15.241-2.656 13.058-2.699 13.724-1.043 16.25 3.113 4.752 12.808 3.101 17.606-2.998 2.44-3.102 1.939-4.46-.749-2.028-2.66 2.408-5.18 2.12-5.161-.589.01-1.238 1.273-7.873 2.808-14.746l2.791-12.496 4.943-.706c5.227-.747 8.442-3.391 8.442-6.944 0-2.594-2.785-3.501-4.742-1.545-1.307 1.308-1.36 1.859-.3 3.137 1.128 1.359.764 1.55-2.947 1.55h-4.234l.734-3.75c1.159-5.922 1.092-6.652-.648-7.013-1.001-.208-2.454.983-3.743 3.069m-96.737 8.596c-2.613.879-4.955 2.232-5.203 3.007-.314.976.062 1.212 1.221.767.948-.363 1.86-.107 2.103.591.235.678-1.065 7.983-2.889 16.233-2.201 9.953-3.018 15.589-2.43 16.75 1.104 2.182 8.016 2.406 10.096.326 1.347-1.347 3.287-8.611 7.284-27.28 1.369-6.398 1.494-8.52.565-9.639-1.857-2.238-5.566-2.498-10.747-.755m21.559-.954C99.791 111.814 96.675 115 101 115c1.1 0 2 .324 2 .72 0 .396-2.504 11.902-5.565 25.569C91.3 168.687 91.306 169 97.967 169c5.11 0 6.612-2.042 8.85-12.035 1.394-6.225 2.264-8.35 3.289-8.03 4.171 1.3 10.899 1.114 13.793-.383 6.973-3.606 12.101-14.69 12.101-26.157 0-5.217-.415-6.735-2.527-9.245-3.485-4.141-7.269-4.776-13.101-2.196-2.6 1.15-4.984 1.698-5.299 1.218-.714-1.087-4.659-3.202-5.757-3.086-.449.047-1.967.435-3.374.862m43.829.29c-4.92 1.254-9.771 6.74-9.77 11.047 0 2 1.512 5.672 3.999 9.715 2.199 3.575 3.999 7.48 3.999 8.679.002 4.725-6.343 7.041-10.558 3.853-4.494-3.399-4.825.126-.364 3.879 2.445 2.057 4.142 2.589 8.265 2.589 7.18 0 11.598-2.524 14.497-8.283 2.041-4.053 2.193-5.091 1.191-8.125-.631-1.913-2.952-5.745-5.157-8.514-5.111-6.419-5.156-10.406-.123-10.891 3.594-.347 3.993.213 1.75 2.456-1.981 1.981-1.892 3.077.345 4.274 2.743 1.468 6.155-1.277 6.155-4.951 0-4.885-6.801-7.623-14.229-5.728m60.229-.281c-5.722 1.106-10.668 3.959-14.988 8.646-8.639 9.372-9.941 21.259-3.05 27.861 5.853 5.607 19.031 4.328 25.555-2.482 3.089-3.224 1.829-3.966-2.517-1.482-4.98 2.847-10.299 1.756-12.537-2.572-3.063-5.923-2.307-7.075 8.414-12.812 10.355-5.543 12.827-8.177 11.739-12.51-.992-3.95-6.236-5.883-12.616-4.649m22.5-.242c-3.384.816-8.5 3.464-8.5 4.399 0 .487.9.886 2 .886s2.006.563 2.013 1.25c.007.688-1.403 7.859-3.132 15.936s-2.874 15.39-2.544 16.25c.422 1.099 1.942 1.564 5.109 1.564 5.924 0 6.76-1.372 10.136-16.628 2.616-11.824 2.769-12.169 6.085-13.75 3.83-1.827 7.333-2.124 7.333-.622 0 2.577 2.79.592 3.802-2.705.954-3.111.874-3.995-.5-5.514-2.02-2.232-4.471-1.624-9.552 2.367-3.424 2.69-3.75 2.773-3.75.956 0-1.095-1-2.691-2.223-3.547-2.281-1.598-2.836-1.673-6.277-.842m-25.902 6.596c-2.204 2.204-5.32 10.3-4.342 11.279.214.213 2.52-.965 5.125-2.617 4.398-2.789 4.716-3.266 4.428-6.661-.385-4.553-2.028-5.184-5.211-2.001m-89.254.461c-2.754 2.208-7.795 23.517-6.247 26.41 3.206 5.99 9.303-2.843 11.919-17.269.933-5.148.86-6.454-.48-8.498-1.871-2.857-2.355-2.916-5.192-.643m9.93 38.887c-1.225.854-4.572 1.843-7.439 2.197l-5.212.644-1.385 5.5c-1.907 7.571-5.781 11.518-12.738 12.976-2.983.626-2.911.72 13.162 17.061l16.162 16.433 2.203-1.985c1.211-1.092 12.982-13.099 26.156-26.683l23.954-24.697-7 .587c-6.049.507-7.503.289-10.707-1.601-3.611-2.13-3.802-2.142-7.319-.437-5.747 2.784-16.116 3.006-21.383.456-5.11-2.473-5.525-2.496-8.454-.451m32.956 33.591-32.265 32.25-29.568-30.25L68.83 161H56.767l3.803 4.25C71.604 177.581 126.755 233 127.992 233c1.453 0 76.008-73.794 76.008-75.232 0-.422-2.588-.768-5.752-.768h-5.752l-32.266 32.25M80 158.845c0 .968 3.32 4.155 4.329 4.155.369 0 .671-1.125.671-2.5 0-2-.5-2.5-2.5-2.5-1.375 0-2.5.38-2.5.845" fill="#1976D2" fill-rule="evenodd"/><path fill-opacity=".323" d="M102 48.5 77.515 73H88.482l19.76-19.742 19.761-19.742 29.755 29.742L187.512 93h10.977L164 58.5C145.031 39.525 128.83 24 127.998 24c-.832 0-12.531 11.025-25.998 24.5m12.222 11.709L99.944 74.581l1.647 3.302c1.09 2.183 1.466 4.652 1.113 7.289-.422 3.145-.024 4.741 1.88 7.548 1.329 1.957 2.416 4.559 2.416 5.78 0 1.917.678 2.302 4.945 2.807 2.72.322 8.008.35 11.75.062 5.804-.446 7.467-.181 11.305 1.804l4.5 2.327 4.5-2.34c4.071-2.118 5.358-2.284 13.5-1.75 9.769.64 14.406-.702 17.159-4.967 1.238-1.917-.276-3.696-22.415-26.331L128.5 45.836l-14.278 14.373m5.934-1.167C116.117 62.869 113.1 66 113.45 66c.351 0 3.611-2.25 7.243-5 3.633-2.75 7.029-5 7.547-5 .918 0 4.404 2.796 19.76 15.847 4.751 4.039 2.552 1.578-6-6.714-7.425-7.199-13.725-13.08-14-13.069-.275.011-3.805 3.151-7.844 6.978M76.271 81.095c-5.018 2.484-9.88 7.749-12.331 13.354-.975 2.228-2.815 8.889-4.091 14.801L57.531 120h-6.766c-4.759 0-6.757-.371-6.739-1.25.014-.687.902-5.075 1.974-9.75 2.755-12.016 2.65-14.799-.589-15.612-4.65-1.167-14.323.334-19.976 3.1-8.774 4.293-13.312 11.999-10.022 17.019 3.243 4.95 12.587 2.304 12.587-3.564 0-3.253-.663-3.509-4.525-1.75-4.694 2.139-5.434-2.184-1.182-6.91 2.424-2.695 11.475-5.915 12.826-4.564.587.587.065 5.047-1.386 11.861l-2.326 10.92-3.442.5c-4.663.677-5.525 4-1.038 4 1.69 0 3.073.41 3.073.911 0 .502-1.399 6.834-3.108 14.072-2.803 11.867-3.476 13.547-6.846 17.089-3.184 3.347-4.354 3.928-7.913 3.928-3.484 0-4.365-.414-5.315-2.5-1.393-3.057-3.367-3.212-4.88-.383-1.987 3.712.946 5.389 9.35 5.347 10.957-.055 20.24-4.971 24.483-12.964.876-1.65 2.763-7.95 4.193-14l2.599-11 6.719-.296c7.851-.345 7.583-.989 4.718 11.296-2.574 11.039-2.59 15.114-.066 16.465 2.753 1.473 6.405 1.283 11.046-.574 4.474-1.79 5.388-3.375 1.52-2.636-3.123.597-3.163-.367-.493-11.755 1.096-4.675 2.219-9.485 2.497-10.69.39-1.694 1.351-2.26 4.242-2.5 2.611-.217 3.837-.837 4.069-2.06.266-1.402-.379-1.75-3.242-1.75-1.965 0-3.573-.202-3.573-.448 0-1.826 7.118-30.905 7.942-32.444 3.071-5.738 7.694-6.736 10.914-2.358 1.893 2.574 2.131 2.643 3.72 1.078 5.5-5.419-7.371-9.155-16.305-4.733m14.194 15.857c-3 1.216-4.662 3.633-4.292 6.243.604 4.255 9.045 3.615 11.075-.84 1.037-2.277.899-2.818-1.145-4.472-2.572-2.083-2.731-2.11-5.638-.931m91.237 5.975c-1.901 3.218-6.682 6.538-10.952 7.603-3.184.795-3.693 2.47-.75 2.47 1.1 0 2 .228 2 .507s-1.35 6.576-3 13.993c-4.348 19.545-4.053 21.5 3.25 21.5 4.27 0 8.67-1.913 10.775-4.684 1.18-1.554 1.176-1.636-.023-.566-1.911 1.703-4.94 1.575-5.636-.239-.526-1.371.082-4.734 4.299-23.761l1.495-6.75h4.42c3.087 0 5.023-.603 6.42-2 2.32-2.32 2.663-6 .559-6-2.03 0-2.932 1.846-1.654 3.386 1.583 1.906.31 2.614-4.699 2.614h-4.462l.626-3.913c.344-2.151.9-4.626 1.235-5.5 1.084-2.824-2.085-1.736-3.903 1.34M86 110.723c-.825.31-2.625.996-4 1.524l-2.5.959 2.319.89c1.569.603 2.156 1.459 1.813 2.647-.279.967-1.948 8.203-3.71 16.08-2.897 12.954-3.055 14.472-1.65 15.878 1.696 1.696 8.097 1.129 9.304-.825.841-1.36 7.424-31.429 7.424-33.908 0-3.087-4.811-4.822-9-3.245m18.299.383c-3.493 1.01-5.354 2.894-2.858 2.894 2.352 0 2.03 2.57-3.441 27.401-2.75 12.482-5 23.332-5 24.112 0 2.501 3.709 3.738 7.479 2.494 3.292-1.086 3.44-1.374 5.571-10.812 1.204-5.332 2.294-9.816 2.421-9.963.127-.147 1.536.413 3.13 1.244 3.602 1.878 6.533 1.92 10.681.153 4.319-1.84 7.101-5.039 10.123-11.641 8.162-17.828.924-32.038-12.765-25.059-3.736 1.904-3.807 1.904-5.711 0-2.074-2.074-4.567-2.287-9.63-.823m43.032.776c-7.818 3.652-8.55 10.072-2.253 19.737 4.616 7.086 4.749 9.693.651 12.742-2.311 1.719-3.225 1.881-5.5.973-6.816-2.718-6.834-2.715-3.636.604 9.74 10.107 29.727-2.129 23.249-14.233-.636-1.189-2.886-4.35-5-7.024-2.113-2.673-3.842-5.688-3.842-6.699 0-2.556 2.685-4.982 5.512-4.982 3.136 0 4.241 1.976 2.015 3.604-1.993 1.457-1.412 4.396.87 4.396 2.01 0 4.603-2.77 4.603-4.916 0-5.037-9.667-7.473-16.669-4.202m59.372-.44c-6.54 2.333-11.541 6.345-14.612 11.723-10.241 17.931 2.199 32.873 19.862 23.858 1.951-.996 4.382-2.734 5.404-3.863l1.856-2.053-3.818 1.946c-2.1 1.071-4.841 1.947-6.091 1.947-4.77 0-10.917-9.073-8.552-12.624.411-.618 4.471-2.99 9.02-5.272 9.89-4.96 12.228-7.093 12.228-11.155 0-2.536-.585-3.296-3.468-4.5-4.235-1.769-6.883-1.771-11.829-.007m21.797.503c-3.166 1.499-3.531 1.91-1.75 1.974 2.884.104 2.861.455-1.15 18.081-1.815 7.975-3.093 15.066-2.84 15.759.608 1.66 4.616 2.614 7.716 1.836 2.723-.683 3.863-3.792 7.108-19.395 1.343-6.454 2.284-8.738 4.234-10.271 3.765-2.962 6.947-3.452 9.197-1.416 1.861 1.684 1.973 1.648 2.96-.946 3.188-8.387-2.534-9.931-10.225-2.758-2.59 2.416-2.75 2.447-2.75.533 0-2.68-3.052-5.349-6.079-5.316-1.331.015-4.221.878-6.421 1.919m-22.414 4.193c-2.104 2.259-5.443 10.838-4.561 11.72.285.286 2.543-.464 5.017-1.666 4.975-2.417 7.048-5.704 6.066-9.618-.804-3.201-3.762-3.399-6.522-.436m-89.757 1.112c-2.131 2.374-6.859 21.736-6.181 25.309.6 3.157 5.21 3.072 7.738-.142 4.619-5.871 7.877-23.254 4.914-26.217-1.83-1.83-4.236-1.44-6.471 1.05m11.252 39.088c-2.037 1.057-5.661 2.142-8.054 2.412-4.208.474-4.387.638-5.491 5.021-1.949 7.74-3.77 10.225-9.276 12.655l-5.097 2.249 14.81 15.163c8.146 8.339 15.125 15.162 15.508 15.162.384 0 11.752-11.388 25.263-25.307l24.566-25.307-5.873.425c-4.742.343-6.582.006-9.558-1.75l-3.687-2.175-4.781 2.057c-6.523 2.806-14.272 2.715-20.099-.235-4.527-2.292-4.529-2.292-8.231-.37m32.641 33.912-32.274 32.25-7.216-7.5c-3.968-4.125-17.426-17.963-29.906-30.75L68.136 161h-5.068c-2.788 0-5.068.272-5.068.605C58 163.061 126.454 232 127.9 232c.886 0 18.256-16.65 38.6-37l36.99-37h-10.994l-32.274 32.25M81 159.378c0 .207.622.894 1.383 1.525 1.067.885 1.517.799 1.969-.377.402-1.049-.03-1.526-1.383-1.526-1.083 0-1.969.17-1.969.378" fill="#1976D2" fill-rule="evenodd"/><path fill-opacity=".484" d="M102.75 48.511C89.688 61.404 79 72.188 79 72.476c0 .288 2.093.524 4.652.524h4.652L107.7 53.75c10.668-10.588 19.826-19.25 20.352-19.25.525 0 14.137 13.163 30.249 29.25L187.594 93h4.703c2.587 0 4.703-.24 4.703-.534 0-1.429-67.422-67.461-68.851-67.432-.907.019-12.336 10.583-25.399 23.477M76.206 81.669c-1.811.893-5.076 3.648-7.255 6.124-4.213 4.786-6.36 10.442-9.472 24.957L57.711 121h-7.356c-4.045 0-7.356-.338-7.358-.75-.001-.412 1.209-6.043 2.689-12.511 2.028-8.865 2.408-12.045 1.541-12.912-1.684-1.684-12.285-1.301-18.182.658-5.819 1.933-10.448 5.459-12.581 9.584-4.22 8.161 2.002 14.286 8.956 8.816 2.891-2.275 3.307-6.739.556-5.975-6.126 1.703-8.593-.793-5.481-5.543 1.913-2.92 8.734-6.313 12.755-6.345 3.437-.027 3.47 1.025.455 14.478l-2.241 10-3.732.31c-4.403.367-5.062 2.19-.791 2.19 1.618 0 3.153.344 3.413.763.259.42-.845 6.608-2.454 13.75-2.081 9.239-3.722 14.132-5.687 16.955-4.748 6.819-13.904 8.5-16.404 3.012-.871-1.911-1.424-2.214-2.466-1.35-6.162 5.115 7.913 7.991 18.931 3.869 9.881-3.697 14.448-10.086 17.155-23.999 2.569-13.206 2.41-13 9.991-13 3.554 0 6.719.417 7.034.926.315.509-.635 6.379-2.11 13.045-2.505 11.314-2.572 12.229-1.015 13.786 2.098 2.098 8.535 1.96 12.378-.266 1.536-.89 2.038-1.391 1.116-1.114-3.518 1.058-3.707-1.608-.985-13.877l2.662-12 3.5-.321c4.857-.446 6.342-2.179 1.867-2.179-1.944 0-3.78-.246-4.081-.547-.598-.598 2.078-13.413 5.383-25.782 3.416-12.779 9.173-17.213 13.839-10.659 1.18 1.656 2.561 2.755 3.068 2.441 1.618-1 .994-4.345-1.01-5.418-2.905-1.555-11.131-1.204-14.86.634m11.968 17.645c-2.724 2.9-2.743 4.311-.081 5.736 2.922 1.564 6.766.353 8.088-2.548 2.313-5.077-3.906-7.553-8.007-3.188m-3.386 12.345c-1.262.349-1.571 1.178-1.177 3.157.294 1.476-.88 9.139-2.609 17.027-1.729 7.889-2.901 14.977-2.605 15.75 1.108 2.887 9.603.738 9.603-2.43 0-.381 1.369-6.761 3.043-14.178 1.673-7.417 2.911-14.835 2.75-16.485-.261-2.67-.677-3.017-3.793-3.157-1.925-.086-4.27.056-5.212.316m18.212.557c-2.06.897-2.192 1.163-.75 1.51.963.231 1.745.95 1.74 1.597-.006.647-2.427 12.202-5.38 25.677-3.709 16.927-5.059 24.886-4.367 25.75.551.688 2.211 1.25 3.688 1.25 4.489 0 5.806-1.97 7.908-11.83 1.093-5.132 2.213-9.555 2.488-9.83.275-.275 1.672.269 3.106 1.208 4.06 2.66 10.893 1.498 15.086-2.567 5.42-5.253 7.905-12.076 7.946-21.817.032-7.576-.18-8.511-2.326-10.25-3.112-2.524-9.724-2.504-13.582.039-2.914 1.921-2.957 1.921-4.307-.006-1.54-2.199-7.058-2.557-11.25-.731m43.984.639c-3.75 1.998-6.289 7.111-5.285 10.645.313 1.1 2.308 4.897 4.435 8.437 2.126 3.54 3.866 7.003 3.866 7.694 0 2.239-4.431 6.387-7 6.554-1.375.089-3.625-.183-5-.604l-2.5-.766 2.318 1.697c5.687 4.163 15.987 2.398 19.895-3.41 3.923-5.829 3.141-9.55-3.871-18.421-4.334-5.483-4.732-7.791-1.842-10.681 2.41-2.41 6.26-2.597 8.09-.392 1.128 1.36 1.07 1.802-.378 2.86-2.306 1.687-2.166 3.532.269 3.532 1.312 0 2.207-.901 2.651-2.669 1.432-5.705-8.178-8.453-15.648-4.476m57.069.348c-11.677 5.78-18.389 20.446-13.597 29.712 1.663 3.217 6.974 6.085 11.267 6.085 3.489 0 12.019-2.773 12.897-4.193.343-.557-.353-.485-1.558.16-5.42 2.9-13.062-2.905-13.062-9.922 0-3.288.409-3.972 3.021-5.054 1.662-.688 3.287-1.68 3.611-2.204.323-.524-.786-.242-2.465.627-1.68.868-3.296 1.186-3.593.706-.985-1.594 2.334-10.577 4.941-13.37 4.499-4.822 7.485-3.327 7.485 3.748 0 2.451-.729 3.905-2.75 5.484-1.803 1.408-.515 1.007 3.738-1.167 4.776-2.44 6.751-4.068 7.48-6.17.851-2.45.66-3.123-1.349-4.75-3.24-2.623-10.422-2.486-16.066.308M228 112.5c-1.908 1.091-2.086 1.438-.75 1.465 2.459.049 2.272 2.796-1.303 19.117-1.679 7.666-2.777 14.383-2.441 14.928.337.544 2.37.99 4.518.99 4.83 0 5.095-.469 7.932-14 1.211-5.775 2.431-11.319 2.712-12.319 1.107-3.943 11.098-7.486 12.898-4.574.984 1.592 2.4-.958 2.419-4.357.022-3.939-3.654-3.649-9.408.743-3.955 3.019-4.577 3.234-4.577 1.582 0-4.048-1.092-5.076-5.357-5.04-2.279.02-5.268.679-6.643 1.465m-111.365 3.75c-1.917 1.742-3.064 4.819-5.081 13.63-2.742 11.975-2.664 14.633.459 15.624 4.565 1.449 8.794-4.344 11.476-15.723 1.991-8.443 1.886-11.406-.489-13.781-2.541-2.541-3.327-2.51-6.365.25M161.5 190c-17.594 17.6-32.517 32-33.164 32-.646 0-14.357-13.5-30.469-30l-29.294-30h-9.962l11.423 11.75c32.774 33.71 57.339 58.25 58.31 58.25 1.219 0 73.656-72.02 73.656-73.232 0-.422-1.915-.768-4.256-.768-4.253 0-4.279.024-36.244 32m-16.671-3c-7.496 6.6-14.011 12-14.479 11.999-.467 0-3.55-2.083-6.85-4.63l-6-4.629 6.445 6.604 6.445 6.603 12.055-11.65c6.63-6.407 13.17-12.696 14.532-13.973 1.363-1.278 2.253-2.324 1.979-2.324-.275 0-6.632 5.4-14.127 12" fill="#1976D2" fill-rule="evenodd"/></svg>