<svg xmlns="http://www.w3.org/2000/svg" width="256" height="256"><path fill-opacity=".498" d="M0 128.011v104.997l128.25-.254 128.25-.254.255-105 .254-105-128.504.258L0 23.015v104.996M.482 128c0 58.025.12 81.762.268 52.75.147-29.013.147-76.488 0-105.5C.602 46.237.482 69.975.482 128" fill="#1976D2" fill-rule="evenodd"/><path fill-opacity=".492" d="M0 128.011v104.997l128.25-.254 128.25-.254.255-105 .254-105-128.504.258L0 23.015v104.996M.482 128c0 58.025.12 81.762.268 52.75.147-29.013.147-76.488 0-105.5C.602 46.237.482 69.975.482 128m113.66-67.698L99.784 74.741l1.736 2.649c1.286 1.962 1.595 3.876 1.194 7.38-.391 3.415-.122 5.198.967 6.414.83.926 2.098 3.401 2.818 5.5 1.186 3.458 1.716 3.875 5.655 4.443 2.39.345 7.576.395 11.523.112 6.079-.438 7.821-.181 11.381 1.674 4.12 2.148 4.275 2.155 7.823.389 2.747-1.368 6.149-1.824 14.119-1.894 12.395-.108 14.286-.596 16.986-4.388l2.037-2.861-23.761-24.148L128.5 45.863l-14.358 14.439m67.914 42.094c-1.61 3.009-6.067 6.339-10.863 8.118-3.384 1.254-3.505 1.426-1.443 2.044 1.238.371 2.25 1.04 2.25 1.487 0 .446-1.35 6.653-3 13.794-3.429 14.837-3.616 17.402-1.429 19.59 2.171 2.17 8.277 1.961 12.179-.418 3.883-2.367 4.168-3.28.759-2.424-3.887.976-4.055-1.465-1.063-15.413 3.75-17.486 3.167-16.174 7.187-16.174 3.603 0 7.31-1.465 8.602-3.4 1.244-1.864.843-4.6-.676-4.6-2.03 0-2.932 1.846-1.654 3.386 1.573 1.895.316 2.614-4.572 2.614-4.796 0-4.998-.43-3.414-7.25 1.023-4.409-.773-5.259-2.863-1.354M127.5 156.067c-1.65 1.057-5.114 2.203-7.697 2.549-4.271.571-4.756.912-5.338 3.756-1.715 8.386-5.474 12.812-12.792 15.062-1.47.453 1.06 3.587 12.977 16.072 8.142 8.53 15.083 15.394 15.425 15.252.341-.142 11.736-11.59 25.322-25.441l24.701-25.183-5.463.564c-4.327.447-6.371.124-9.834-1.552l-4.372-2.117-5.225 1.986c-7.205 2.737-13.713 2.569-19.785-.511-2.705-1.373-4.919-2.465-4.919-2.427 0 .038-1.35.934-3 1.99M81 159.378c0 .207.622.894 1.383 1.525 1.067.885 1.517.799 1.969-.377.402-1.049-.03-1.526-1.383-1.526-1.083 0-1.969.17-1.969.378m62 29.153c-6.325 5.722-11.88 10.419-12.344 10.436-.464.018-3.614-2.044-7-4.582l-6.156-4.614 6.444 6.587c3.544 3.623 6.546 6.487 6.671 6.365 19.322-18.941 25.063-24.711 24.535-24.66-.357.035-5.825 4.745-12.15 10.468" fill="#1976D2" fill-rule="evenodd"/><path fill-opacity=".969" d="M0 128.011v104.997l128.25-.254 128.25-.254.255-105 .254-105-128.504.258L0 23.015v104.996M.477 128c-.001 58.025.122 88.711.273 68.191.257-34.894.383-37.201 1.949-35.635 2.831 2.831 16.388 1.61 23.184-2.089 8.026-4.368 10.137-7.821 13.681-22.381l3.064-12.586 6.335-.302c3.483-.165 6.659.06 7.057.5.398.441-.357 5.527-1.679 11.302-2.825 12.344-2.723 14.946.659 16.828 2.774 1.544 8.841.471 12.512-2.213 1.838-1.344 1.794-1.396-.781-.904-3.42.654-3.474-.359-.695-12.972 2.97-13.482 2.56-12.739 7.031-12.739 2.829 0 3.933-.421 3.933-1.5 0-1.056-1.068-1.5-3.611-1.5h-3.612l.684-3.75c.376-2.062 2.036-9.477 3.688-16.477 2.397-10.152 3.577-13.339 5.829-15.75 3.638-3.894 6.516-3.902 8.522-.023 1.787 3.457 3.016 3.773 4.426 1.138 1.483-2.77-.788-5.176-5.48-5.805-9.02-1.21-18.3 4.463-22.809 13.943-1.366 2.873-3.477 10.061-4.691 15.974L57.739 120h-14.41l2.51-11.612c2.928-13.548 2.624-14.722-3.941-15.224-10.918-.834-22.62 4.694-25.971 12.268-2.917 6.593-.855 10.568 5.48 10.568 2.855 0 6.593-3.93 6.593-6.931 0-1.841-.401-2.179-2-1.686-1.1.34-2.838.878-3.862 1.198-2.606.812-3.463-2.052-1.658-5.542 2.66-5.144 15.559-9.547 15.493-5.289-.015.963-1.037 6.25-2.271 11.75l-2.244 10-3.4.5c-4.442.653-5.335 3-1.141 3 3.845 0 3.865.515.561 14.496-3.201 13.549-4.443 16.455-8.479 19.851-4.219 3.551-10.909 3.498-12.486-.097-1.178-2.686-3.296-2.932-4.294-.5-.396.963-.949-28.85-1.229-66.25C.548 31.747.479 36.847.477 128m102.265-80.242C89.684 60.824 79 71.849 79 72.258c0 .408 2.112.742 4.693.742h4.693l19.82-19.73 19.821-19.731L157.77 63.27 187.512 93h10.977L164 58.5C145.031 39.525 128.83 24 127.998 24c-.833 0-12.198 10.691-25.256 23.758m10.814 12.128c-13.923 14-14.838 15.15-13.391 16.821 2.199 2.539 2.816 5.873 1.765 9.536-.747 2.605-.539 3.545 1.196 5.391 1.155 1.229 2.403 3.718 2.774 5.529.601 2.94 1.153 3.39 5.137 4.188 2.454.491 5.476.842 6.713.779 12.864-.65 13.86-.558 17.571 1.632 3.762 2.22 3.792 2.221 7.502.329 4.99-2.546 11.735-3.442 16.978-2.255 2.808.636 5.543.632 7.878-.013 3.91-1.08 8.321-4.888 8.321-7.184 0-.798-10.687-12.325-23.75-25.616L128.5 44.858l-14.944 15.028M88.762 97.073c-5.098 2.971-4.064 8.927 1.551 8.927 6.036 0 9.962-5.325 6.487-8.8-1.451-1.451-5.652-1.517-8.038-.127m92.957 4.825c-1.916 3.244-6.687 6.564-10.969 7.632-2.869.717-3.861 3.47-1.25 3.47 1.935 0 2.027-.925-1.66 16.754l-3.181 15.254 2.345 2.496c2.76 2.938 6.651 3.228 11.629.866 3.311-1.571 6.367-4.81 6.367-6.747 0-.513-.823-.188-1.829.722-1.907 1.726-4.748 2.195-5.477.905-.233-.412.978-7.275 2.691-15.25l3.115-14.5 3.5-.27c1.925-.148 4.435-.475 5.579-.726 3.822-.839 5.489-8.504 1.849-8.504-2.04 0-3.588 3.44-2.181 4.847.871.871.094 1.153-3.175 1.153h-4.328l.651-4.068c.358-2.238.753-4.573.878-5.191.504-2.488-2.913-1.62-4.554 1.157M82 112c-2.988 1.636-3.171 1.922-1.25 1.958 2.939.055 2.91.63-.924 18.318-2.937 13.551-3.07 14.908-1.601 16.377 2.265 2.265 8.533 1.015 9.812-1.957 1.416-3.29 6.963-29.247 6.963-32.582 0-4.582-6.548-5.646-13-2.114m22.828-1.021c-4.602 1.389-5.407 2.263-2.93 3.179 1.508.558 2.075 1.404 1.732 2.585-2.065 7.137-10.591 48.916-10.193 49.953.654 1.704 7.98 1.712 9.392.01.591-.712 1.955-5.245 3.031-10.075 1.076-4.829 2.184-9.008 2.462-9.287.279-.278 1.416-.02 2.527.575 3.176 1.7 10.327 1.281 13.465-.787 5.99-3.95 10.808-14.513 11.048-24.221.276-11.198-6.295-15.788-15.722-10.982-3.736 1.904-3.807 1.904-5.711 0-2.024-2.024-4.64-2.297-9.101-.95m42.497.48c-1.746.76-3.973 2.6-4.95 4.091-2.875 4.388-2.24 8.482 2.425 15.643 2.31 3.546 4.2 7.203 4.2 8.127 0 4.76-8.323 7.508-12.177 4.019-2.802-2.535-3.487-.675-.803 2.182 5.212 5.548 15.291 5.322 21.087-.474 5.419-5.419 5.062-11.959-1.056-19.363-2.169-2.625-4.234-5.685-4.588-6.8-.81-2.552 2.035-5.884 5.025-5.884 3.117 0 3.762 1.067 1.893 3.132-3.225 3.563.688 6.656 4.102 3.242 2.314-2.314 1.534-6.567-1.483-8.086-3.267-1.645-9.685-1.564-13.675.171m55.874 1.129c-11.876 5.918-18.262 20.156-13.521 30.146 2.253 4.747 8.705 7.711 14.639 6.723 5.045-.84 10.497-3.486 13.088-6.351 2.178-2.408 1.044-2.76-1.846-.574-2.647 2.002-8.867 1.849-11.498-.282-2.225-1.803-4.286-8.292-3.183-10.022.342-.537 4.222-2.781 8.622-4.988 13.051-6.546 15.732-10.099 11.108-14.723-3.483-3.483-10.333-3.455-17.409.071m25.301-.643c-3.166 1.499-3.531 1.91-1.75 1.974 2.95.106 2.914.831-.875 17.722-1.745 7.778-2.895 14.865-2.555 15.75.754 1.965 7.933 2.238 9.433.359.549-.687 2.249-6.994 3.779-14.015 2.624-12.045 2.962-12.877 5.992-14.75 3.6-2.225 7.49-2.571 9.239-.822.884.884 1.412.508 2.2-1.565 1.361-3.58 1.316-4.121-.462-5.597-1.9-1.577-6.266.055-9.577 3.579-2.884 3.071-3.924 3.059-3.924-.045 0-4.571-4.954-5.687-11.5-2.59m-110.185 3.117c-3.014 1.139-3.936 3.223-6.347 14.354-2.597 11.984-2.39 14.976 1.065 15.379 6.002.701 11.661-12.859 11.064-26.51-.121-2.765-2.897-4.313-5.782-3.223m87.893 1.216c-2.095 2.23-5.632 10.632-4.818 11.445.226.226 2.649-.723 5.385-2.109 5.254-2.662 7.068-6.17 5.097-9.853-1.274-2.381-3.097-2.214-5.664.517m-78.934 39.381c-1.225.854-4.567 1.843-7.426 2.197l-5.199.644-1.14 5c-.627 2.75-1.786 6.05-2.575 7.333-1.528 2.486-7.782 6.167-10.477 6.167-.893 0-1.474.39-1.29.866.843 2.191 29.738 31.134 31.082 31.134.835 0 3.208-1.912 5.273-4.25 2.066-2.338 13.143-13.742 24.617-25.343C171.612 167.806 181 158.07 181 157.772c0-.298-2.899-.309-6.443-.025-5.415.435-7.033.17-10.139-1.663-3.598-2.123-3.791-2.134-7.307-.43-5.747 2.784-16.116 3.006-21.383.456-5.11-2.473-5.525-2.496-8.454-.451M80 158.845c0 1.338 3.59 4.231 4.331 3.491.368-.368.669-1.494.669-2.503 0-1.289-.742-1.833-2.5-1.833-1.375 0-2.5.38-2.5.845m80.21 31.405-32.285 32.25-8.655-9c-4.76-4.95-18.263-18.787-30.007-30.75L67.911 161h-4.456c-2.45 0-4.455.351-4.455.78 0 .972 65.396 68.303 67.466 69.461.855.479 2.27.419 3.271-.137.97-.539 17.961-17.208 37.758-37.042L203.49 158h-10.994l-32.286 32.25" fill="#1976D2" fill-rule="evenodd"/></svg>