<svg xmlns="http://www.w3.org/2000/svg" width="256" height="256"><path fill-opacity=".016" d="M0 128.004v128.004l128.25-.254 128.25-.254.254-127.75L257.008 0H0v128.004m.485.496c0 70.4.119 99.053.265 63.672.146-35.38.146-92.98 0-128C.604 29.153.485 58.1.485 128.5" fill="#1976D2" fill-rule="evenodd"/><path fill-opacity=".131" d="M101.704 47.251C88.066 60.588 76.929 71.838 76.954 72.25c.025.412 2.629.75 5.787.75h5.741l19.76-19.742 19.761-19.742 29.81 29.797 29.81 29.798 5.73-.305 5.73-.306L164.537 58c-18.999-18.975-35.331-34.612-36.291-34.749-1.115-.159-10.703 8.511-26.542 24m11.86 11.672L98.629 73.896l1.836 3.41c1.34 2.487 1.679 4.581 1.256 7.74-.487 3.629-.187 4.799 1.849 7.219 1.336 1.589 2.43 4.145 2.43 5.682 0 2.568.382 2.848 4.75 3.484 6.013.874 6.6.878 13.25.072 4.681-.567 6.209-.301 10.261 1.785l4.76 2.451 4.204-2.08c4.058-2.008 9.278-2.457 19.913-1.713 4.666.326 10.575-2.479 12.283-5.831 1.314-2.576.978-2.98-22.794-27.39L128.5 43.951l-14.936 14.972M76.5 79.871c-4.917 2.246-9.808 7.152-12.446 12.486-1.095 2.211-3.193 9.11-4.663 15.332L56.719 119h-6.467c-4.768 0-6.34-.329-5.985-1.252.264-.689 1.524-6.144 2.8-12.123 2.291-10.736 2.295-10.888.376-12.333-3.149-2.372-15.725-1.242-22.033 1.98C18.24 98.934 14 104.021 14 108.963c0 4.833 2.073 7.037 6.617 7.037 4.258 0 8.676-3.918 8.2-7.271-.312-2.196-2.709-2.774-6.793-1.639-2.946.819-2.264-3.711.969-6.431 3.265-2.747 10.558-5.441 11.683-4.316.365.365-.405 5.59-1.711 11.612l-2.376 10.949-3.544.298c-2.779.234-3.545.73-3.545 2.298 0 1.438.772 2.089 2.75 2.316 1.512.174 2.75.701 2.75 1.17 0 3.684-5.52 25.119-7.146 27.75-3.896 6.304-12.857 8.547-15.036 3.764-1.409-3.091-3.223-3.187-5.261-.278-1.437 2.051-1.4 2.379.476 4.25 1.686 1.682 3.266 2.014 9.25 1.945 9.007-.103 16.238-3.038 21.306-8.647 4.443-4.918 5.589-7.657 8.377-20.02l2.198-9.75h12.509l-2.565 12.419c-2.516 12.183-2.529 12.458-.681 14.5 2.404 2.657 7.615 2.699 13.323.108 4.544-2.063 5.712-4.29 2-3.815-1.237.158-2.429-.063-2.648-.493-.218-.43.639-5.717 1.905-11.75L69.308 124h3.311c2.21 0 3.643-.621 4.311-1.869 1.259-2.353.49-3.131-3.097-3.131-3.568 0-3.567-.222.121-16.188 3.277-14.186 4.899-18.014 8.685-20.495 2.561-1.678 2.638-1.653 5.375 1.7 2.398 2.938 2.995 3.22 4.381 2.07.883-.733 1.605-2.151 1.605-3.153 0-4.741-9.995-6.491-17.5-3.063m12.517 16.415c-3.2 1.619-4.85 6.006-3.067 8.154 1.664 2.005 6.968 2.006 9.827.003 2.853-1.998 3.023-6.945.289-8.408-2.507-1.341-4.008-1.288-7.049.251m92.308 5.459c-2.638 3.283-4.762 4.707-12.265 8.223-2.321 1.087-2.413 3.032-.143 3.032 1.146 0 2.083.228 2.083.507s-1.35 6.576-3 13.993c-3.486 15.668-3.612 17.664-1.25 19.693 2.807 2.411 5.214 2.894 9.142 1.836 3.892-1.048 10.945-7.394 9.329-8.393-.525-.324-1.759.301-2.742 1.388-2.561 2.829-4.486 2.494-4.442-.774.02-1.512 1.263-8.375 2.763-15.25l2.726-12.5 4.887-.5c3.804-.389 5.328-1.092 6.874-3.172 2.424-3.26 1.653-6.101-1.533-5.648-1.648.234-2.258.992-2.268 2.82-.011 2.106-.546 2.551-3.389 2.824l-3.376.324.66-3.824c1.141-6.608 1.147-7.599.054-7.988-.586-.209-2.436 1.326-4.11 3.409m-98.575 8.913c-3.924 1.628-5.342 4.571-1.75 3.632 1.1-.288 1.985-.133 1.966.343-.018.477-1.553 7.798-3.41 16.27-1.857 8.471-3.15 15.991-2.874 16.712 1.209 3.15 9.527 2.732 11.293-.568.91-1.701 8.025-31.745 8.025-33.887 0-2.059-3.232-4.159-6.321-4.108-1.749.028-4.866.751-6.929 1.606m20 0c-3.924 1.628-5.342 4.571-1.75 3.632 2.529-.662 2.521-.472-.545 12.468-1.4 5.908-3.888 17.042-5.529 24.742l-2.983 14 2.193 1.793c2.523 2.064 7.579 1.521 9.577-1.027.667-.851 1.939-4.971 2.826-9.157 2.299-10.841 1.903-10.234 5.497-8.441 11.306 5.64 23.964-8.776 23.964-27.294 0-5.06-.432-6.759-2.25-8.852-3.062-3.524-8.625-4.333-13.787-2.005-3.694 1.665-4.094 1.675-5.794.136-2.257-2.042-6.487-2.04-11.419.005m44.665-.237c-8.303 3.616-9.425 11.188-3.057 20.644 3.826 5.681 4.609 9.887 2.211 11.877-2.195 1.823-7.343 1.572-9.596-.466-1.503-1.36-2.31-1.539-3.151-.698-1.642 1.642 4.404 6.986 8.846 7.82 7.273 1.364 16.176-3.564 18.353-10.161 1.449-4.391.26-8.159-4.364-13.832-5.216-6.398-5.813-7.938-4.053-10.45.845-1.207 2.585-2.155 3.953-2.155 2.776 0 3.144 1.173.943 3-2.082 1.728-1.874 3.747.462 4.488 3.362 1.067 6.038-1.148 6.038-4.998 0-2.796-.551-3.724-2.95-4.964-3.603-1.863-9.492-1.908-13.635-.105m58.326-.046c-9.276 3.443-16.535 12.343-18.197 22.308-.528 3.17-.204 5.298 1.34 8.789 4.347 9.826 17.424 10.836 28.366 2.19 1.688-1.333 2.529-4.23 1-3.443-10.264 5.284-15.782 3.689-16.933-4.893l-.514-3.83 8.243-3.998c13.105-6.357 16.942-11.484 11.964-15.989-2.588-2.342-10.444-2.925-15.269-1.134m22.319.377c-3.957 2.01-5.604 4.873-2.178 3.786 2.768-.879 2.756-.665-.977 16.934-1.702 8.025-2.847 15.238-2.543 16.029 1.349 3.514 10.973 2.427 12.03-1.359.252-.903 1.67-6.968 3.151-13.478 2.49-10.946 2.928-11.98 5.825-13.747 3.9-2.378 6.243-2.43 7.52-.167 1.232 2.183 2.789.863 4.012-3.402 1.915-6.678-2.87-8.286-9.703-3.261-3.058 2.248-4.197 2.675-4.197 1.571 0-4.487-6.817-6.018-12.94-2.906m-21.716 5.464c-1.853 2.048-4.344 7.735-4.344 9.92 0 1.815 9.088-3.637 9.624-5.773 1.411-5.624-1.718-8.081-5.28-4.147m-89.638.556c-1.985 2.193-6.983 23.344-6.075 25.709.404 1.053 1.54 1.52 3.222 1.323 4.815-.564 9.716-13.566 8.974-23.804-.265-3.648-.716-4.556-2.382-4.794-1.131-.162-2.813.543-3.739 1.566M127 154.999c-1.925 1.053-5.597 2.212-8.161 2.575-4.398.623-4.699.865-5.341 4.293-1.666 8.887-6.419 14.121-12.831 14.129-1.559.002-2.684.428-2.5.946.504 1.427 30.949 32.058 31.863 32.058.998 0 52.089-52.215 51.584-52.719-.204-.204-2.381.135-4.839.754-4.811 1.211-10.658.234-14.232-2.38-1.647-1.204-2.496-1.114-6.47.687-6.298 2.856-15.18 2.797-20.783-.137-4.951-2.593-3.973-2.568-8.29-.206m33.38 33.407-32.121 32.474-18.413-18.69c-10.127-10.279-23.548-23.977-29.824-30.44L68.611 160h-5.889c-3.351 0-5.745.416-5.555.966.799 2.318 69.164 71.034 70.67 71.034 2.018 0 76.543-74.287 75.536-75.294-.389-.388-2.994-.721-5.79-.74l-5.083-.034-32.12 32.474M80 158.8c0 1.246 2.259 3.2 3.7 3.2.715 0 1.3-.9 1.3-2 0-1.467-.667-2-2.5-2-1.375 0-2.5.36-2.5.8" fill="#1976D2" fill-rule="evenodd"/><path fill-opacity=".399" d="M101.5 48 77.516 72h11.682l19.428-19.201 19.428-19.201 29.761 29.701L187.577 93h5.211c2.867 0 5.212-.34 5.212-.756 0-.415-15.19-15.94-33.755-34.5C137.893 31.401 129.94 24 127.987 24c-1.934 0-7.949 5.45-26.487 24m12.526 11.467L99.553 73.973l1.844 3.123c1.379 2.333 1.693 4.228 1.245 7.5-.496 3.619-.171 5.01 1.879 8.03 1.363 2.009 2.479 4.431 2.479 5.382 0 2.641 7.141 3.689 17 2.495 4.711-.57 6.203-.304 10.404 1.857l4.904 2.524 4.096-2.126c4.002-2.076 8.013-2.439 20.335-1.839 4.769.232 9.565-2.086 11.033-5.334.83-1.835-1.889-4.996-22.665-26.354L128.5 44.961l-14.474 14.506m5.818-.351c-7.927 7.682-7.601 7.802 1.445.535 3.184-2.558 6.201-4.651 6.704-4.651.503 0 5.998 4.352 12.211 9.67 6.213 5.319 12.196 10.365 13.296 11.213l2 1.543-2-2.105C148.931 70.513 128.645 52 127.946 52c-.417 0-4.063 3.202-8.102 7.116M73.883 81.859c-6.997 4.438-10.344 10.425-13.402 23.977-1.448 6.415-2.81 12.227-3.026 12.914-.261.832-2.575 1.25-6.924 1.25-7.638 0-7.417.587-4.531-12 2.718-11.858 2.622-13.809-.75-15.115-4.185-1.622-13.017-.213-19.992 3.189-4.817 2.349-6.815 4.021-8.75 7.323-3.03 5.169-3.163 7.948-.508 10.603 2.584 2.584 6.042 2.541 9.42-.116 1.932-1.52 2.604-2.859 2.385-4.75-.309-2.668-1.152-2.919-5.417-1.617-2.679.817-3.645-1.369-2.033-4.603 1.556-3.12 8.306-6.877 12.395-6.898 1.788-.009 3.25.217 3.25.501 0 .745-4.026 19.649-4.629 21.733-.355 1.229-1.529 1.75-3.938 1.75-2.385 0-3.433.458-3.433 1.5 0 1.009 1.009 1.5 3.079 1.5 3.533 0 3.608-1.652-.79 17.371-2.938 12.707-6.468 17.877-13.051 19.112-3.353.629-3.984.386-6.351-2.45-2.429-2.909-2.753-3.025-4.258-1.519-3.909 3.909-.374 6.486 8.899 6.486 7.472 0 15.346-3.178 20.319-8.2 4.55-4.596 5.506-6.911 8.586-20.8l2.107-9.5 6.73-.296c5.277-.232 6.73.01 6.73 1.121 0 .778-1.106 6.307-2.457 12.286-2.208 9.77-2.307 11.1-.977 13.13 1.84 2.808 7.726 3.063 13.216.572 3.714-1.685 3.715-1.687.968-2.066-1.513-.209-2.75-1.008-2.75-1.775 0-1.175 1.091-6.296 4.521-21.222.43-1.87 1.19-2.25 4.498-2.25 2.872 0 3.981-.418 3.981-1.5 0-1.048-1.056-1.5-3.5-1.5-1.925 0-3.5-.427-3.5-.948 0-1.727 6.916-31.105 7.613-32.34 3.317-5.875 8.621-7.487 10.569-3.212 1.277 2.803 4.284 3.333 5.211.918.812-2.117.828-2.054-.964-3.847C91.336 79.479 88.957 79 84.624 79c-5.139 0-7.023.502-10.741 2.859m13.772 15.97c-5.089 5.623 1.594 10.91 7.71 6.098 4.514-3.55 2.908-7.927-2.91-7.927-1.777 0-3.865.796-4.8 1.829m93.821 4.792c-1.644 2.155-5.006 4.648-8.306 6.159-4.956 2.269-5.309 2.624-3.332 3.356 1.662.615 2.079 1.383 1.677 3.091-3.216 13.679-5.515 25.208-5.515 27.657 0 7.427 10.343 8.078 16.502 1.038l1.998-2.284-2.365 1.606c-2.818 1.913-5.135 1.287-5.135-1.388 0-2.567 4.841-24.747 6.025-27.606.765-1.848 1.713-2.25 5.299-2.25 2.96 0 4.899-.589 6.021-1.829 2.754-3.043 1.784-7.105-1.25-5.23-.809.5-1.052 1.62-.635 2.934.622 1.96.311 2.125-4.004 2.125h-4.679l.665-3.75c.366-2.062.896-4.537 1.179-5.5.853-2.906-1.213-1.974-4.145 1.871m-76.851 7.848c-4.513 1.609-7.318 3.897-4.125 3.365 1.395-.233 2.089.288 2.294 1.722.162 1.131-1.976 12.266-4.75 24.745C95.27 152.781 93 163.884 93 164.976c0 2.44 4.148 3.704 7.89 2.406 2.319-.804 2.888-2.036 5.11-11.062l2.5-10.157 2.904 1.531c1.942 1.024 4.427 1.36 7.5 1.014 3.857-.434 5.24-1.228 8.596-4.94 5.175-5.722 7.954-13.362 7.98-21.937.017-5.617-.346-7.06-2.3-9.139-3.321-3.536-7.501-4.086-12.897-1.699-4.484 1.983-4.498 1.983-7.023-.003-2.953-2.323-3.489-2.355-8.635-.521m104.559-.305C198.128 112.097 188 124.312 188 135.714c0 7.466 6.147 13.276 14.054 13.282 4.64.004 13.593-3.661 15.986-6.544 1.563-1.883-.102-1.873-2.599.016-2.533 1.916-8.425 1.932-11.142.029-2.353-1.648-4.789-7.777-3.955-9.95.289-.754 4.493-3.506 9.341-6.116C220.609 120.552 222 119.374 222 116c0-5.004-4.877-7.225-12.816-5.836m20.566.445c-2.613.798-4.75 1.936-4.75 2.528 0 .592.692.811 1.538.487.846-.325 1.753-.029 2.016.656.263.686-1.08 8.199-2.984 16.696-3.785 16.887-3.668 18.024 1.861 18.024 5.29 0 6.224-1.565 9.173-15.372 2.57-12.033 2.949-12.994 5.822-14.746 3.484-2.125 7.613-2.443 9.337-.719.884.884 1.412.508 2.2-1.565 1.477-3.887 1.294-5.39-.793-6.507-2.061-1.103-6.13.599-9.92 4.15-1.708 1.6-2.25 1.75-2.25.624 0-2.096-2.148-4.571-4.5-5.185-1.1-.287-4.137.131-6.75.929m-147.5.611c-1.237.597-2.25 1.493-2.25 1.992 0 .498.399.659.887.358.487-.301 1.322.01 1.854.691.647.829-.181 6.287-2.499 16.477-1.906 8.381-3.204 15.918-2.885 16.75.817 2.129 7.194 1.963 9.393-.246 2.003-2.011 8.905-33.092 7.92-35.66-.718-1.871-8.803-2.106-12.42-.362m62.143 2.059c-5.089 4.663-4.999 8.443.413 17.399 4.737 7.841 5.03 9.486 2.194 12.322-2.41 2.41-6.72 2.585-9.842.398-2.68-1.877-4.028-1.151-2.123 1.144 5.649 6.807 18.394 5.495 23.695-2.44 3.741-5.6 2.614-10.338-4.421-18.584-4.047-4.743-4.099-8.234-.154-10.438 2.232-1.247 2.912-1.269 4.275-.138 1.455 1.207 1.464 1.517.095 3.03-2.231 2.465-1.866 4.028.94 4.028 2.31 0 4.535-2.421 4.535-4.934 0-.586-.9-1.966-2-3.066-1.557-1.557-3.333-2-8.015-2-5.402 0-6.378.334-9.592 3.279m61.785 2.031c-2.294 2.442-5.798 11.403-4.836 12.366.312.312 2.638-.646 5.168-2.129 5.515-3.232 7.32-6.429 5.672-10.047-1.419-3.114-3.204-3.17-6.004-.19m-89.126.446c-1.559 1.263-2.855 4.66-4.61 12.088-2.829 11.97-2.982 14.463-.99 16.116 2.258 1.874 4.978.399 7.484-4.06 5.004-8.903 6.768-22.918 3.13-24.865-2.498-1.336-2.467-1.341-5.014.721m9.217 40.358c-2.328 1.07-5.799 2.004-7.715 2.076-3.39.128-3.515.28-4.704 5.721-1.451 6.641-5.976 11.647-11.46 12.676l-3.552.666 14.831 15.116c8.157 8.313 15.22 15.286 15.695 15.495.97.425 20.682-18.916 38.589-37.864l11.813-12.5-6.633.286c-5.099.221-7.327-.145-9.633-1.58-2.931-1.824-3.099-1.823-7.286.026-5.948 2.627-15.764 2.548-21.091-.169-2.224-1.135-4.174-2.025-4.333-1.979-.16.047-2.194.96-4.521 2.03m33.928 33.136-32.3 32.25-29.698-30.333L68.5 160.833l-5.263.334-5.264.333L91.577 196c24.3 24.947 34.317 34.592 36.176 34.832 2.213.286 7.659-4.753 38.91-35.995C186.648 174.857 203 158.17 203 157.755c0-.415-2.363-.755-5.252-.755h-5.252l-32.299 32.25m-78.968-30.062c.618 1.854 2.771 2.161 2.771.395 0-.87-.713-1.583-1.583-1.583-.871 0-1.406.534-1.188 1.188" fill="#1976D2" fill-rule="evenodd"/><path fill-opacity=".466" d="M102.5 48 78.516 72h9.966l19.76-19.742 19.761-19.742 29.755 29.742L187.512 92h9.977L163.5 58c-18.694-18.7-34.67-34-35.502-34-.833 0-12.307 10.8-25.498 24M76.491 80.865c-4.469 2.03-10.07 7.881-12.024 12.562-1.437 3.44-3.723 12.164-5.457 20.823L57.858 120h-7.429c-4.191 0-7.429-.428-7.429-.981 0-.54 1.167-5.956 2.592-12.037 3.292-14.039 3.096-14.395-7.597-13.776C25.312 93.941 15 101.224 15 109.448c0 4.027 1.565 5.552 5.7 5.552 3.743 0 7.3-2.924 7.3-6 0-2.128-2.414-2.657-4.909-1.077-3.925 2.484-5.588-2.939-2.062-6.724 4.199-4.507 13.507-7.572 14.571-4.798.329.858-.465 6.406-1.764 12.329l-2.363 10.77-3.407.5c-4.809.706-5.254 3-.582 3 3.011 0 3.559.307 3.125 1.75-.289.962-1.673 6.89-3.076 13.172-2.866 12.837-4.65 16.567-9.485 19.825-4.653 3.136-9.354 2.977-11.813-.399-2.091-2.87-4.235-2.497-4.235.736 0 4.745 13.311 4.947 22.73.344 9.23-4.51 11.785-8.998 15.758-27.678l1.648-7.75h7.432c4.088 0 7.424.338 7.414.75-.01.412-1.127 5.475-2.482 11.25-3.027 12.899-3.068 14.625-.386 16.061 2.541 1.36 9.813.457 12.501-1.552 1.807-1.351 1.796-1.387-.252-.872-1.176.295-2.379.146-2.675-.333-.296-.479.626-6.368 2.049-13.087L68.324 123h3.731c2.394 0 3.937-.538 4.307-1.5.452-1.179-.279-1.5-3.412-1.5-3.618 0-3.941-.209-3.486-2.25 3.716-16.639 7.644-30.985 9.087-33.187 1.941-2.963 5.597-4.827 7.805-3.98.755.29 1.891 1.663 2.523 3.051 1.335 2.931 3.478 2.68 3.94-.461.621-4.218-9.098-5.592-16.328-2.308m11 18.145c-1.461 1.614-1.659 2.503-.847 3.799 2.448 3.905 10.802 1.34 10.167-3.122-.45-3.166-6.66-3.617-9.32-.677m.971 11.582c-.529.128-2.289.528-3.91.889-2.26.503-2.61.865-1.5 1.552 1.24.767 1.029 2.876-1.466 14.681-4.184 19.795-4.192 19.894-1.572 20.58 3.849 1.006 6.797-.877 7.923-5.062C90.435 133.956 94 116.871 94 114.176c0-2.272-.521-3.043-2.288-3.38-1.258-.241-2.721-.333-3.25-.204m15.235.588c-2.475.902-2.612 1.162-1.171 2.215 1.485 1.086 1.135 3.471-3.901 26.57-3.042 13.957-5.301 25.75-5.019 26.206.804 1.301 8.034.969 9.176-.421.564-.687 1.818-5.075 2.786-9.75s2.06-8.851 2.426-9.279c.365-.429 1.979-.094 3.585.744 8.523 4.444 17.881-2.171 21.816-15.425 1.865-6.28 2.082-13.899.495-17.383-2.192-4.811-9.126-6.03-14.761-2.594l-3.371 2.055-1.918-2.059c-2.068-2.22-5.622-2.528-10.143-.879m46.488-.151c-4.115.925-7.893 4.367-8.669 7.897-.669 3.046.716 6.681 4.907 12.875 4.723 6.98 3.552 12.162-3.126 13.839-1.212.304-3.645-.166-5.406-1.045-3.178-1.585-3.189-1.582-1.397.398 6.846 7.565 23.515 1.435 23.501-8.643-.006-3.896-.883-5.634-6.745-13.364-1.787-2.358-3.25-5.049-3.25-5.981 0-2.574 3.288-5.005 6.77-5.005 3.825 0 4.949 1.548 2.828 3.892-2.198 2.428-2.002 3.305.652 2.928 2.952-.42 3.726-5.247 1.06-6.612-2.909-1.489-7.555-1.981-11.125-1.179m58.533.102c-5.745 1.293-9.101 3.361-13.427 8.276-8.005 9.094-8.541 21.375-1.173 26.844 3.53 2.619 11.474 2.542 16.566-.162 3.759-1.996 3.77-2.018.704-1.46-3.616.657-8.793-1.65-10.388-4.63-1.344-2.511-1.635-9.275-.419-9.731.505-.19 4.965-2.465 9.909-5.057 10.514-5.509 13.327-8.903 10.003-12.065-2.492-2.372-6.865-3.12-11.775-2.015m19.782.405c-1.898.869-2.357 1.39-1.25 1.419 2.463.063 2.274 2.704-1.412 19.67-3.384 15.573-3.301 16.323 1.801 16.36 3.596.025 6.01-3.107 7.31-9.485 3.9-19.126 3.863-19.026 7.981-21.341 4.207-2.364 7.572-2.774 8.636-1.052.984 1.592 2.4-.958 2.419-4.357.022-4.021-3.944-3.686-8.853.75-4.564 4.123-5.132 4.256-5.132 1.2 0-1.265-.54-2.84-1.2-3.5-1.561-1.561-6.509-1.4-10.3.336m-23.196 3.669c-2.163 2.33-5.982 12.45-5.051 13.381.28.28 3.054-.739 6.166-2.265 5.9-2.894 7.017-4.628 6.409-9.95-.438-3.831-4.471-4.456-7.524-1.166m-89.204.695c-2.533 2.533-7.79 24.778-6.385 27.02 1.568 2.504 5.22 2.49 7.902-.03 2.549-2.394 5.641-11.099 6.823-19.207 1.17-8.022-3.626-12.497-8.34-7.783m44.128 74.35-32.269 32.25-9.23-9.5a17660.832 17660.832 0 0 0-30.015-30.75L67.927 161h-4.463c-2.455 0-4.464.262-4.464.582C59 162.976 126.589 231 127.973 231c.846 0 17.958-16.425 38.027-36.5l36.49-36.5h-9.994l-32.268 32.25m-6.394-11.978c-2.567 2.325-8.889 7.888-14.05 12.361l-9.384 8.134-2.95-2.078c-1.623-1.143-5.2-3.87-7.95-6.058-4.045-3.221-3.476-2.419 2.982 4.2l7.982 8.18 14.268-14.243c7.847-7.833 14.268-14.36 14.268-14.505 0-.582-.69-.047-5.166 4.009" fill="#1976D2" fill-rule="evenodd"/></svg>